<?xml version="1.0" encoding="utf-8"?>
<!-- Generator: Adobe Illustrator 25.1.0, SVG Export Plug-In . SVG Version: 6.00 Build 0)  -->
<svg version="1.1" id="Layer_1" xmlns="http://www.w3.org/2000/svg" xmlns:xlink="http://www.w3.org/1999/xlink" x="0px" y="0px"
	 viewBox="0 0 800 800" style="enable-background:new 0 0 800 800;" xml:space="preserve">
<style type="text/css">
	.st0{fill-rule:evenodd;clip-rule:evenodd;fill:#FFFFFF;}
</style>
<g>
	<path class="st0" d="M0,0v800h800V0H0z M676.6,177l-94,452.1c-2.2,10.7-14.7,15.5-23.6,9.1l-128.3-93.2c-7.8-5.7-18.4-5.4-25.9,0.7
		l-71.1,58c-8.3,6.8-20.7,3-23.9-7.2l-49.4-158.9l-127.6-47.6c-13-4.9-13.1-23.2-0.1-28.1l523.7-202
		C667.6,155.6,679,165.4,676.6,177z"/>
	<path class="st0" d="M551.3,258.8L301.9,412.4c-9.6,5.9-14.1,17.4-11,28.3l27,94.8c1.9,6.7,11.7,6,12.6-0.9l7-52
		c1.3-9.8,6-18.8,13.2-25.5l205.8-191.3C560.4,262.1,555.8,256,551.3,258.8z"/>
</g>
</svg>
