<?xml version="1.0" encoding="utf-8"?>
<!-- Generator: Adobe Illustrator 25.1.0, SVG Export Plug-In . SVG Version: 6.00 Build 0)  -->
<svg version="1.1" xmlns="http://www.w3.org/2000/svg" xmlns:xlink="http://www.w3.org/1999/xlink" x="0px" y="0px"
	 viewBox="0 0 512 512" style="enable-background:new 0 0 512 512;" xml:space="preserve">
<style type="text/css">
	.st0{fill:#FFFFFF;}
</style>
<g id="Шар_2">
</g>
<g id="Шар_1">
	<g>
		<path class="st0" d="M0,0v512h512V0H0z M447.3,288.5C435,388.7,359.5,398.4,346.2,402.7c-5.8,1.8-56.5,14.6-122.7,9
			c-7.3,8.4-17,19.5-24,27.1c-12.8,13.8-20.7,26.5-34,22.4c-11.1-3.4-10.5-20.2-10.5-20.2l0.1-41.5h-0.1
			c-96.6-27.2-95.2-127.4-94.1-180.9s11.5-96.7,40.9-126.1c52.9-48.6,161.6-42.1,161.6-42.1c92.2,0.4,133.5,30.4,143.7,39.8
			C441.1,119.8,460,185.1,447.3,288.5z"/>
		<path class="st0" d="M385.7,111.2c-8.7-7.9-46-31.4-123.9-31.7c0,0-92.3-6-137.1,34.6c-24.9,24.6-33.4,61.2-34.3,105.8
			s-5.7,130,76.2,152.7c0,0-0.3,63.4-0.3,68.9c-0.1,8.4,4.6,8.8,8.8,4.6c13-13.1,54.9-63.5,54.9-63.5c56.1,3.6,100.7-7.5,105.5-9
			c11.3-3.6,72.5-8.9,82.8-92.6C429.1,194.6,414.4,135.8,385.7,111.2z M351.6,314.7v0.2c-8.7,15.3-24.9,32.2-41.7,26.8l-0.2-0.2
			c-17-4.7-56.9-25.3-82.2-45.4c-13-10.3-24.9-22.4-34.1-34.1c-8.3-10.4-16.6-22.7-24.8-37.5c-17.1-31-20.9-44.8-20.9-44.8
			c-5.4-16.7,11.4-33,26.8-41.7h0.2c7.4-3.9,14.5-2.6,19.2,3.1c0,0,10,11.9,14.2,17.8c4,5.5,9.4,14.2,12.2,19.1
			c4.9,8.8,1.8,17.7-3,21.4l-9.7,7.7c-4.9,3.9-4.3,11.3-4.3,11.3s14.3,54.1,67.8,67.8c0,0,7.3,0.6,11.3-4.3l7.7-9.7
			c3.7-4.8,12.6-7.9,21.4-3c11.8,6.7,26.9,17.1,36.8,26.5C354.2,300.3,355.5,307.3,351.6,314.7L351.6,314.7z M261.9,161.3
			c-6.8-0.5-6.1-10.9,0.7-10.4c46.7,3.4,71.5,35.5,70.6,74.4c-0.1,6.9-10.5,6.6-10.4-0.2C323.7,190.9,302.4,164.2,261.9,161.3z
			 M306.6,216c0.3,6.9-10.1,7.4-10.4,0.5c-0.9-17.7-9.2-26.3-26.2-27.3c-6.9-0.4-6.3-10.8,0.6-10.4C293,180,305.5,192.9,306.6,216z
			 M350.3,235.9c-0.5-65.6-44.2-101.3-97.2-101.7c-6.8-0.1-6.8-10.4,0-10.4c59.3,0.4,107,41.3,107.5,112
			C360.8,242.7,350.3,242.8,350.3,235.9z"/>
	</g>
</g>
</svg>
