<?xml version="1.0" encoding="utf-8"?>
<!-- Generator: Adobe Illustrator 25.1.0, SVG Export Plug-In . SVG Version: 6.00 Build 0)  -->
<svg version="1.1" id="Шар_1" xmlns="http://www.w3.org/2000/svg" xmlns:xlink="http://www.w3.org/1999/xlink" x="0px" y="0px"
	 viewBox="0 0 33 32" style="enable-background:new 0 0 33 32;" xml:space="preserve">
<style type="text/css">
	.st0{fill-rule:evenodd;clip-rule:evenodd;fill:#FFFFFF;}
</style>
<path class="st0" d="M13.8,11.1c0.3-0.2,0.7-0.2,1,0l6,4c0.3,0.2,0.4,0.5,0.4,0.8s-0.2,0.6-0.4,0.8l-6,4c-0.3,0.2-0.7,0.2-1,0
	c-0.3-0.2-0.5-0.5-0.5-0.9v-8C13.3,11.6,13.5,11.3,13.8,11.1z M15.3,13.9v4.3l3.2-2.1L15.3,13.9z"/>
<path class="st0" d="M16.3,5.1L16.3,5.1L16.3,5.1c-0.1,0-0.2,0-0.3,0c-0.2,0-0.5,0-0.9,0c-0.7,0-1.7,0.1-2.9,0.2
	C9.9,5.4,7,5.8,4.8,6.7l0,0C4.4,6.9,4,7.1,3.7,7.5S3.1,8.3,3,8.7l0,0C2.7,9.9,2.3,12.2,2.3,16c0,3.8,0.4,6.1,0.7,7.3l0,0
	c0.1,0.5,0.3,0.9,0.7,1.2c0.3,0.4,0.7,0.6,1.1,0.8l0,0c2.2,0.9,5.1,1.3,7.4,1.4c1.2,0.1,2.2,0.1,2.9,0.2c0.4,0,0.7,0,0.9,0
	c0.1,0,0.2,0,0.2,0h0.1h0h0h0h0.1c0.1,0,0.1,0,0.2,0c0.2,0,0.5,0,0.9,0c0.7,0,1.7-0.1,2.9-0.2c2.3-0.2,5.2-0.6,7.4-1.4l0,0
	c0.4-0.2,0.8-0.5,1.1-0.8c0.3-0.4,0.5-0.8,0.7-1.2l0,0c0.3-1.2,0.7-3.5,0.7-7.3c0-3.8-0.4-6.1-0.7-7.3l0,0c-0.1-0.5-0.3-0.9-0.7-1.2
	s-0.7-0.6-1.1-0.8l0,0c-2.2-0.9-5.1-1.3-7.4-1.4c-1.2-0.1-2.2-0.1-2.9-0.2c-0.4,0-0.7,0-0.9,0C16.5,5.1,16.4,5.1,16.3,5.1L16.3,5.1
	L16.3,5.1L16.3,5.1z M16.3,25L16.3,25L16.3,25L16.3,25L16.3,25c0.1,0,0.2,0,0.3,0c0.2,0,0.5,0,0.8,0c0.7,0,1.7-0.1,2.8-0.2
	c2.2-0.2,4.9-0.6,6.9-1.3c0.1-0.1,0.3-0.2,0.4-0.3c0.1-0.1,0.2-0.3,0.2-0.4c0.3-1,0.6-3.1,0.6-6.8c0-3.7-0.4-5.7-0.6-6.8
	c0-0.2-0.1-0.3-0.2-0.4c-0.1-0.1-0.2-0.2-0.4-0.3c-2-0.7-4.6-1.1-6.9-1.3c-1.1-0.1-2.1-0.1-2.8-0.2c-0.4,0-0.6,0-0.8,0
	c-0.1,0-0.2,0-0.2,0l-0.1,0l0,0l0,0l0,0l0,0l0,0l-0.1,0c0,0-0.1,0-0.2,0c-0.2,0-0.5,0-0.8,0c-0.7,0-1.7,0.1-2.8,0.2
	c-2.2,0.2-4.9,0.6-6.9,1.3C5.4,8.6,5.3,8.7,5.2,8.8C5.1,8.9,5,9.1,4.9,9.2c-0.3,1-0.6,3.1-0.6,6.8c0,3.7,0.4,5.7,0.6,6.8
	c0,0.2,0.1,0.3,0.2,0.4c0.1,0.1,0.2,0.2,0.4,0.3c2,0.7,4.6,1.1,6.9,1.3c1.1,0.1,2.1,0.1,2.8,0.2c0.4,0,0.6,0,0.8,0
	C16.1,25,16.2,25,16.3,25L16.3,25L16.3,25L16.3,25z"/>
</svg>
